<svg height="512pt" viewBox="0 0 512 512" width="512pt" xmlns="http://www.w3.org/2000/svg" xmlns:xlink="http://www.w3.org/1999/xlink"><linearGradient id="a" gradientUnits="userSpaceOnUse" x1="256" x2="256" y1="0" y2="512"><stop offset="0" stop-color="#2af598"/><stop offset="1" stop-color="#009efd"/></linearGradient><path d="m452 70h-40v-10c0-33.085938-26.914062-60-60-60h-192c-33.085938 0-60 26.914062-60 60v10h-40c-33.085938 0-60 26.914062-60 60v251c0 33.085938 26.914062 60 60 60h40v11c0 33.085938 26.914062 60 60 60h192c33.085938 0 60-26.914062 60-60v-11h40c33.085938 0 60-26.914062 60-60v-251c0-33.085938-26.914062-60-60-60zm-392 331c-11.027344 0-20-8.972656-20-20v-251c0-11.027344 8.972656-20 20-20h40v291zm312 51c0 11.027344-8.972656 20-20 20h-192c-11.027344 0-20-8.972656-20-20v-392c0-11.027344 8.972656-20 20-20h192c11.027344 0 20 8.972656 20 20zm100-71c0 11.027344-8.972656 20-20 20h-40v-291h40c11.027344 0 20 8.972656 20 20zm0 0" fill="url(#a)"/></svg>